<?xml version="1.0" encoding="UTF-8"?>
<svg id="katman_1" data-name="katman 1" xmlns="http://www.w3.org/2000/svg" version="1.1" viewBox="0 0 841.89 595.28">
  <defs>
    <style>
      .cls-1 {
        fill: #fff;
        fill-rule: evenodd;
      }

      .cls-1, .cls-2 {
        stroke-width: 0px;
      }

      .cls-2 {
        fill: #c30f2e;
      }
    </style>
  </defs>
  <circle class="cls-2" cx="420.99" cy="297.41" r="239.38"/>
  <path class="cls-1" d="M568.27,400.13v3.23h-103.99v-3.23h36.03v-112.53h-120.12l.6,21.09.26,10.56v5.23l.08,2.61.34,2.62.6,2.53.86,2.54,1.11,2.43,1.29,2.36c4.31,7.24,11.92,14.49,19.22,18.56l2.32,1.22,2.31.96,2.39.79c24.44,6.13,48.32-4.39,57.75-28.77l1.64-4.97,1.36-5.15h5.58v39.75l-9.95-2.69-5.06-1.04-5.15-.62h-2.59l-2.56.1-2.59.43-2.48.61-9.7,3.48-2.49.61c-7.46,1.83-15.67,1.13-23.1-.51l-4.97-1.4-4.98-1.65-4.8-2.09c-21.54-9.22-39.61-31.36-44.53-54.48l-.6-5.15-.18-5.23.17-4.7h-15.87v112.55h36.04v3.23h-104v-3.23h35.79v-215.77h-35.8v-3.23h104v3.23h-36.03v99.89h16.13l.77-4.88,1.46-4.79c8.25-22.61,24.06-40.04,46.33-48.82l4.63-1.74,4.73-1.4,4.88-1.14c8.5-1.28,16.04-1.42,24.3,1.4l4.62,1.74,4.63,1.48,2.41.53,2.39.26h2.42l2.49-.08,4.97-.71,4.81-.96,9.43-2.61v39.74h-5.58l-2.57-9.49-1.54-4.62c-6.33-17.63-25.69-27.04-43.33-26.5l-4.8.43-4.64.96-4.55,1.48-4.28,2.01-4.2,2.43-3.87,2.79-3.6,3.23-3.35,3.49-2.99,3.83-2.59,4.09-2.05,4.36-1.38,4.62-.86,4.79-.6,4.81-.69,9.67-.24,9.59h120.11v-99.89h-36.03v-3.23h103.99v3.23h-35.79v215.76s35.79,0,35.79,0Z"/>
</svg>